<svg xmlns="http://www.w3.org/2000/svg" width="375" viewBox="0 0 375 375" height="375" version="1.0"><defs><clipPath id="a"><path d="M 189 91.601562 L 262.5 91.601562 L 262.5 156 L 189 156 Z M 189 91.601562"/></clipPath><clipPath id="b"><path d="M 112.5 91.601562 L 186 91.601562 L 186 156 L 112.5 156 Z M 112.5 91.601562"/></clipPath><clipPath id="c"><path d="M 112.5 159 L 186 159 L 186 222.851562 L 112.5 222.851562 Z M 112.5 159"/></clipPath><clipPath id="d"><path d="M 189 159 L 262 159 L 262 222.851562 L 189 222.851562 Z M 189 159"/></clipPath></defs><path fill="#FFF" d="M-37.5 -37.5H412.5V412.5H-37.5z"/><path fill="#FFF" d="M-37.5 -37.5H412.5V412.5H-37.5z"/><path fill="#FFF" d="M-37.5 -37.5H412.5V412.5H-37.5z"/><g clip-path="url(#a)"><path fill="#F16549" d="M 220.765625 114.066406 C 227.871094 123.628906 208.160156 124.5625 213.445312 134.601562 C 218.457031 144.136719 225.691406 131.765625 231.289062 131.722656 C 238.894531 131.679688 252.703125 137.257812 260.730469 140.269531 C 260.699219 140.582031 260.667969 140.894531 260.644531 141.210938 C 259.222656 156.601562 225.757812 155.605469 213.160156 155.03125 C 187.148438 153.839844 188.328125 131.070312 190 108.097656 C 190 87.949219 225.484375 91.609375 237.570312 92.273438 C 259.558594 93.453125 263.140625 102.574219 261.957031 124.734375 C 253.398438 123.011719 241.300781 120.945312 238.035156 115.289062 C 233.945312 108.195312 234.933594 100.179688 223.664062 101.371094 C 215.289062 102.257812 217.1875 109.246094 220.765625 114.066406 Z M 220.765625 114.066406"/></g><g clip-path="url(#b)"><path fill="#229D98" d="M 184.230469 141.210938 C 183.035156 154.109375 159.386719 155.496094 144.328125 155.257812 C 147.714844 154.632812 150.957031 153.730469 153.941406 152.671875 C 173.726562 145.664062 174.109375 133.042969 164.667969 127.214844 C 153.832031 120.5 154.460938 116.046875 151.261719 112.722656 C 150.597656 112.039062 149.851562 111.457031 149.058594 110.957031 C 149.382812 108.746094 150.285156 106.863281 152.910156 106.308594 C 158.746094 105.054688 165.289062 117.671875 169.964844 107.957031 C 174.324219 98.902344 161.40625 95.902344 155.351562 98.328125 C 151.683594 99.8125 145.261719 104.511719 144.992188 109.332031 C 137.929688 107.707031 128.761719 110.5 123.273438 113.199219 C 119.085938 115.277344 115.496094 118.539062 112.867188 122.375 C 112.933594 117.757812 113.238281 112.929688 113.605469 108.097656 C 113.605469 87.949219 149.089844 91.609375 161.175781 92.273438 C 187.984375 93.710938 187.398438 106.960938 184.230469 141.210938 Z M 149.675781 129.914062 C 149.394531 129.890625 149.089844 129.878906 148.789062 129.871094 C 137.636719 129.542969 127.589844 144.253906 143.167969 145.414062 C 155.839844 146.355469 164.453125 130.941406 149.675781 129.914062 Z M 149.675781 129.914062"/></g><g clip-path="url(#c)"><path fill="#660E12" d="M 161.164062 159.832031 C 149.089844 159.179688 113.597656 155.507812 113.597656 175.667969 C 112.378906 192.324219 111.4375 208.878906 120.929688 217.164062 C 119.777344 206.820312 140.207031 189.402344 150.6875 192.898438 C 158.539062 195.519531 162.011719 214.140625 161.132812 222.144531 C 172.675781 220.847656 183.4375 217.359375 184.230469 208.769531 C 187.40625 174.519531 187.984375 161.269531 161.164062 159.832031 Z M 125.757812 198.523438 C 119.660156 194.6875 124.402344 178.765625 131.550781 181.386719 C 138.179688 183.824219 132.839844 202.972656 125.757812 198.523438 Z M 141.074219 189.023438 C 133.871094 184.300781 139.925781 165.375 148.398438 168.679688 C 156.273438 171.757812 149.429688 194.515625 141.074219 189.023438 Z M 158.617188 193.960938 C 151.738281 188.785156 159.007812 170.292969 167.242188 174.140625 C 174.898438 177.703125 166.613281 199.984375 158.617188 193.960938 Z M 163.226562 209.753906 C 158.464844 204.359375 167.535156 190.417969 173.640625 194.957031 C 179.316406 199.160156 168.757812 216.027344 163.226562 209.753906 Z M 163.226562 209.753906"/></g><g clip-path="url(#d)"><path fill="#ED1E49" d="M 261.554688 176.816406 C 261.164062 176.511719 260.742188 176.261719 260.332031 176.023438 C 258.964844 175.277344 257.445312 174.800781 255.707031 174.679688 C 253.789062 174.550781 251.878906 174.605469 249.960938 174.8125 C 246.066406 170.769531 238.765625 164.605469 235.605469 163.707031 C 233.664062 169.957031 231.941406 175.363281 231.496094 181.613281 C 228.785156 183.257812 226.210938 185.078125 223.859375 186.976562 C 216.871094 192.574219 212.859375 202.292969 217.046875 210.75 C 219.921875 216.546875 226.832031 220.207031 233.6875 222.503906 C 225.765625 223.089844 217.957031 222.808594 213.160156 222.589844 C 187.148438 221.398438 188.328125 198.628906 190 175.65625 C 190 155.507812 225.484375 159.167969 237.570312 159.832031 C 253.484375 160.6875 259.753906 165.691406 261.554688 176.816406 Z M 234.847656 197.082031 C 232.429688 200.613281 239.207031 211.367188 241.867188 213.46875 C 245.1875 216.082031 259.375 209.777344 259.210938 206.667969 C 258.875 199.886719 237.167969 193.691406 234.847656 197.082031 Z M 234.847656 197.082031"/></g><path fill="#FFF" d="M 152.964844 134.929688 C 151.121094 135.957031 147.800781 135.425781 149.144531 133.269531 C 150.75 130.714844 156.347656 133.019531 152.964844 134.929688 Z M 251.152344 203.558594 C 249.296875 204.445312 251.585938 206.472656 252.574219 206.960938 C 253.410156 207.371094 255.65625 208 256.347656 207.035156 C 257.738281 205.128906 252.640625 202.832031 251.152344 203.558594 Z M 251.152344 203.558594"/><g fill="#F16549"><g><g><path d="M 5.28125 0 L 5.875 0 C 7.6875 0 8.679688 -0.988281 8.679688 -2.804688 C 8.644531 -4.15625 8.644531 -5.511719 8.644531 -6.863281 L 9.867188 -6.863281 C 16.433594 -6.863281 20.527344 -10.261719 20.527344 -15.675781 C 20.527344 -20.722656 17.65625 -22.867188 10.957031 -22.867188 L 5.28125 -22.867188 C 3.464844 -22.867188 2.476562 -21.878906 2.476562 -20.0625 C 2.507812 -17.191406 2.539062 -14.320312 2.539062 -11.449219 C 2.539062 -8.546875 2.507812 -5.675781 2.476562 -2.804688 C 2.476562 -0.988281 3.464844 0 5.28125 0 Z M 8.644531 -11.550781 C 8.644531 -14.816406 8.644531 -16.566406 8.679688 -18.316406 L 10.261719 -18.316406 C 13.003906 -18.316406 14.15625 -17.457031 14.15625 -15.410156 C 14.15625 -12.671875 12.871094 -11.550781 9.769531 -11.550781 Z M 8.644531 -11.550781" transform="translate(108.264 266.433)"/></g></g></g><g fill="#F16549"><g><g><path d="M 8.644531 -4.390625 L 8.644531 -9.109375 C 10.03125 -9.074219 11.417969 -9.074219 12.738281 -9.042969 C 14.554688 -9.042969 15.542969 -9.835938 15.542969 -11.285156 C 15.542969 -12.703125 14.554688 -13.496094 12.738281 -13.496094 C 11.417969 -13.464844 10.03125 -13.464844 8.644531 -13.429688 L 8.644531 -18.480469 C 10.460938 -18.445312 12.308594 -18.445312 14.058594 -18.414062 C 15.871094 -18.414062 16.863281 -19.207031 16.863281 -20.65625 C 16.863281 -22.078125 15.871094 -22.867188 14.058594 -22.867188 L 5.28125 -22.867188 C 3.464844 -22.867188 2.476562 -21.878906 2.507812 -20.0625 C 2.507812 -17.191406 2.539062 -14.320312 2.539062 -11.449219 C 2.539062 -8.578125 2.507812 -5.710938 2.507812 -2.804688 C 2.476562 -0.988281 3.464844 0 5.28125 0 L 14.386719 0 C 16.203125 0 17.191406 -0.792969 17.191406 -2.242188 C 17.191406 -3.664062 16.203125 -4.453125 14.386719 -4.453125 C 12.539062 -4.421875 10.59375 -4.421875 8.644531 -4.390625 Z M 8.644531 -4.390625" transform="translate(130.11 266.433)"/></g></g></g><g fill="#F16549"><g><g><path d="M 18.511719 -20.65625 C 18.511719 -22.109375 17.523438 -22.867188 15.707031 -22.867188 L 3.628906 -22.867188 C 1.816406 -22.867188 0.824219 -22.078125 0.824219 -20.65625 C 0.824219 -19.238281 1.816406 -18.414062 3.664062 -18.414062 C 4.652344 -18.445312 5.609375 -18.445312 6.535156 -18.445312 C 6.535156 -16.136719 6.566406 -13.792969 6.566406 -11.449219 C 6.566406 -8.546875 6.535156 -5.675781 6.5 -2.804688 C 6.5 -0.988281 7.492188 0 9.304688 0 L 9.898438 0 C 11.714844 0 12.703125 -0.988281 12.671875 -2.804688 C 12.671875 -5.710938 12.671875 -8.546875 12.671875 -11.449219 L 12.671875 -18.445312 C 13.660156 -18.445312 14.617188 -18.445312 15.675781 -18.414062 C 17.523438 -18.414062 18.511719 -19.238281 18.511719 -20.65625 Z M 18.511719 -20.65625" transform="translate(148.755 266.433)"/></g></g></g><g fill="#F16549"><g><g><path d="M 5.082031 0 L 15.773438 0 C 17.589844 0 18.578125 -0.957031 18.578125 -2.738281 C 18.578125 -4.488281 17.589844 -5.445312 15.773438 -5.445312 L 8.414062 -5.410156 C 11.914062 -6.632812 18.445312 -10.164062 18.445312 -16.433594 C 18.445312 -21.054688 15.640625 -23.527344 10.03125 -23.527344 C 5.3125 -23.527344 2.277344 -20.824219 1.980469 -15.90625 C 1.882812 -14.089844 3.035156 -13.132812 4.785156 -13.132812 C 6.535156 -13.132812 7.292969 -14.15625 7.492188 -16.039062 C 7.6875 -18.214844 8.546875 -19.074219 10.394531 -19.074219 C 12.34375 -19.074219 13.101562 -18.117188 13.101562 -16.46875 C 13.101562 -12.277344 7.558594 -8.183594 4.09375 -5.90625 C 2.839844 -5.050781 2.277344 -4.058594 2.277344 -2.539062 L 2.277344 -2.375 C 2.277344 -0.859375 3.265625 0 5.082031 0 Z M 5.082031 0" transform="translate(168.093 266.433)"/></g></g></g><g fill="#F16549"><g><g><path d="M 9.667969 0.328125 C 15.609375 0.328125 18.679688 -2.046875 18.679688 -6.601562 C 18.679688 -14.519531 7.65625 -11.089844 7.65625 -16.433594 C 7.65625 -18.019531 8.28125 -19.074219 10.195312 -19.074219 C 11.78125 -19.074219 12.703125 -18.613281 13.003906 -17.226562 C 13.398438 -15.378906 13.925781 -14.386719 15.609375 -14.386719 C 17.292969 -14.386719 18.445312 -15.3125 18.316406 -17.128906 C 18.019531 -21.019531 15.445312 -23.199219 10.296875 -23.199219 C 4.984375 -23.199219 1.945312 -21.253906 1.945312 -16.300781 C 1.945312 -8.21875 12.472656 -10.789062 12.472656 -6.203125 C 12.472656 -4.851562 11.648438 -4.191406 9.867188 -4.191406 C 8.8125 -4.191406 8.050781 -4.390625 7.558594 -4.851562 C 6.433594 -6.070312 6.136719 -7.027344 4.554688 -7.027344 L 4.257812 -7.027344 C 2.574219 -7.027344 1.320312 -5.972656 1.816406 -4.15625 C 2.640625 -1.222656 5.28125 0.328125 9.667969 0.328125 Z M 9.667969 0.328125" transform="translate(188.388 266.433)"/></g></g></g><g fill="#F16549"><g><g><path d="M 10.527344 -23.199219 C 5.644531 -23.199219 2.773438 -19.4375 2.011719 -7.753906 C 1.914062 -6.238281 1.882812 -4.621094 1.847656 -2.839844 C 1.816406 -0.988281 2.804688 0 4.585938 0 C 6.367188 0 7.359375 -0.988281 7.359375 -2.804688 C 7.359375 -3.628906 7.390625 -4.390625 7.390625 -5.113281 L 13.234375 -5.113281 C 13.265625 -4.289062 13.265625 -3.464844 13.265625 -2.574219 C 13.265625 -0.890625 14.257812 0 16.070312 0 L 16.566406 0 C 18.382812 0 19.371094 -1.054688 19.339844 -2.96875 C 19.105469 -18.414062 16.269531 -23.199219 10.527344 -23.199219 Z M 7.457031 -9.042969 C 7.6875 -16.433594 8.382812 -18.546875 10.066406 -18.546875 C 11.714844 -18.546875 12.703125 -16.433594 13.101562 -9.042969 Z M 7.457031 -9.042969" transform="translate(208.353 266.433)"/></g></g></g><g fill="#F16549"><g><g><path d="M 17.191406 -20.492188 C 17.191406 -22.042969 16.203125 -22.867188 14.386719 -22.867188 L 5.28125 -22.867188 C 3.464844 -22.867188 2.476562 -21.878906 2.507812 -20.0625 C 2.507812 -17.191406 2.539062 -14.320312 2.539062 -11.449219 C 2.539062 -8.578125 2.507812 -5.710938 2.507812 -2.804688 C 2.476562 -0.988281 3.464844 0 5.28125 0 L 5.875 0 C 7.6875 0 8.679688 -0.988281 8.644531 -2.804688 C 8.644531 -4.816406 8.644531 -6.796875 8.644531 -8.777344 C 10.164062 -8.746094 11.683594 -8.746094 13.132812 -8.710938 C 14.949219 -8.710938 15.9375 -9.503906 15.9375 -10.957031 C 15.9375 -12.375 14.949219 -13.167969 13.132812 -13.167969 C 11.683594 -13.132812 10.164062 -13.132812 8.644531 -13.101562 L 8.644531 -18.148438 C 10.59375 -18.117188 12.605469 -18.117188 14.386719 -18.085938 C 16.203125 -18.085938 17.191406 -18.941406 17.191406 -20.492188 Z M 17.191406 -20.492188" transform="translate(229.539 266.433)"/></g></g></g><g fill="#F16549"><g><g><path d="M 8.644531 -4.390625 L 8.644531 -9.109375 C 10.03125 -9.074219 11.417969 -9.074219 12.738281 -9.042969 C 14.554688 -9.042969 15.542969 -9.835938 15.542969 -11.285156 C 15.542969 -12.703125 14.554688 -13.496094 12.738281 -13.496094 C 11.417969 -13.464844 10.03125 -13.464844 8.644531 -13.429688 L 8.644531 -18.480469 C 10.460938 -18.445312 12.308594 -18.445312 14.058594 -18.414062 C 15.871094 -18.414062 16.863281 -19.207031 16.863281 -20.65625 C 16.863281 -22.078125 15.871094 -22.867188 14.058594 -22.867188 L 5.28125 -22.867188 C 3.464844 -22.867188 2.476562 -21.878906 2.507812 -20.0625 C 2.507812 -17.191406 2.539062 -14.320312 2.539062 -11.449219 C 2.539062 -8.578125 2.507812 -5.710938 2.507812 -2.804688 C 2.476562 -0.988281 3.464844 0 5.28125 0 L 14.386719 0 C 16.203125 0 17.191406 -0.792969 17.191406 -2.242188 C 17.191406 -3.664062 16.203125 -4.453125 14.386719 -4.453125 C 12.539062 -4.421875 10.59375 -4.421875 8.644531 -4.390625 Z M 8.644531 -4.390625" transform="translate(248.085 266.433)"/></g></g></g></svg>